<?xml version="1.0" encoding="UTF-8"?>
<svg id="b" data-name="Layer 2" xmlns="http://www.w3.org/2000/svg" viewBox="0 0 680.12 159.28">
  <defs>
    <style>
      .d {
        fill: #abb087;
      }

      .e {
        fill: #ca8c78;
      }
    </style>
  </defs>
  <g id="c" data-name="Layer 1">
    <g>
      <circle class="d" cx="12.69" cy="13.97" r="12.69"/>
      <circle class="d" cx="12.69" cy="47.13" r="12.69"/>
      <circle class="d" cx="12.69" cy="80.28" r="12.69"/>
      <circle class="d" cx="12.69" cy="113.44" r="12.69"/>
      <circle class="d" cx="12.69" cy="146.6" r="12.69"/>
      <circle class="d" cx="45.19" cy="13.97" r="12.69"/>
      <circle class="d" cx="45.19" cy="47.13" r="12.69"/>
      <circle class="d" cx="45.19" cy="80.28" r="12.69"/>
      <circle class="d" cx="45.19" cy="113.44" r="12.69"/>
      <circle class="d" cx="45.19" cy="146.6" r="12.69"/>
      <circle class="d" cx="77.69" cy="13.97" r="12.69"/>
      <circle class="d" cx="77.69" cy="47.13" r="12.69"/>
      <circle class="d" cx="77.69" cy="80.28" r="12.69"/>
      <circle class="d" cx="77.69" cy="113.44" r="12.69"/>
      <circle class="d" cx="77.69" cy="146.6" r="12.69"/>
      <circle class="d" cx="110.19" cy="13.97" r="12.69"/>
      <circle class="d" cx="110.19" cy="47.13" r="12.69"/>
      <circle class="d" cx="110.19" cy="80.28" r="12.69"/>
      <circle class="d" cx="110.19" cy="113.44" r="12.69"/>
      <circle class="d" cx="110.19" cy="146.6" r="12.69"/>
      <circle class="d" cx="143.69" cy="13.97" r="12.69"/>
      <circle class="d" cx="143.69" cy="47.13" r="12.69"/>
      <circle class="d" cx="143.69" cy="80.28" r="12.69"/>
      <circle class="d" cx="143.69" cy="113.44" r="12.69"/>
      <circle class="d" cx="176.19" cy="13.97" r="12.69"/>
      <circle class="d" cx="176.19" cy="47.13" r="12.69"/>
      <circle class="d" cx="176.19" cy="80.28" r="12.69"/>
      <circle class="d" cx="176.19" cy="113.44" r="12.69"/>
      <circle class="d" cx="208.69" cy="13.97" r="12.69"/>
      <circle class="d" cx="208.69" cy="47.13" r="12.69"/>
      <circle class="d" cx="208.69" cy="80.28" r="12.69"/>
      <circle class="d" cx="208.69" cy="113.44" r="12.69"/>
      <circle class="d" cx="241.19" cy="13.97" r="12.69"/>
      <circle class="d" cx="241.19" cy="47.13" r="12.69"/>
      <circle class="d" cx="241.19" cy="80.28" r="12.69"/>
      <circle class="d" cx="241.19" cy="113.44" r="12.69"/>
      <circle class="d" cx="273.69" cy="13.97" r="12.69"/>
      <circle class="d" cx="273.69" cy="47.13" r="12.69"/>
      <circle class="d" cx="273.69" cy="80.28" r="12.69"/>
      <circle class="d" cx="273.69" cy="113.44" r="12.69"/>
      <circle class="d" cx="306.19" cy="13.97" r="12.69"/>
      <circle class="d" cx="306.19" cy="47.13" r="12.69"/>
      <circle class="d" cx="306.19" cy="80.28" r="12.69"/>
      <circle class="d" cx="306.19" cy="113.44" r="12.69"/>
      <circle class="d" cx="338.69" cy="13.97" r="12.69"/>
      <circle class="d" cx="338.69" cy="47.13" r="12.69"/>
      <circle class="d" cx="338.69" cy="80.28" r="12.69"/>
      <circle class="d" cx="338.69" cy="113.44" r="12.69"/>
      <circle class="d" cx="371.69" cy="13.97" r="12.69"/>
      <circle class="d" cx="371.69" cy="47.13" r="12.69"/>
      <circle class="d" cx="371.69" cy="80.28" r="12.69"/>
      <circle class="d" cx="371.69" cy="113.44" r="12.69"/>
      <circle class="d" cx="405.19" cy="13.97" r="12.69"/>
      <circle class="d" cx="405.19" cy="47.13" r="12.69"/>
      <circle class="d" cx="405.19" cy="80.28" r="12.69"/>
      <circle class="d" cx="405.19" cy="113.44" r="12.69"/>
      <circle class="d" cx="437.69" cy="13.97" r="12.69"/>
      <circle class="d" cx="437.69" cy="47.13" r="12.69"/>
      <circle class="d" cx="437.69" cy="80.28" r="12.69"/>
      <circle class="d" cx="437.69" cy="113.44" r="12.69"/>
      <circle class="d" cx="470.19" cy="13.97" r="12.69"/>
      <circle class="d" cx="470.19" cy="47.13" r="12.69"/>
      <circle class="d" cx="470.19" cy="80.28" r="12.69"/>
      <circle class="d" cx="470.19" cy="113.44" r="12.69"/>
      <circle class="d" cx="502.69" cy="13.97" r="12.69"/>
      <circle class="d" cx="502.69" cy="47.13" r="12.69"/>
      <circle class="d" cx="502.69" cy="80.28" r="12.69"/>
      <circle class="d" cx="502.69" cy="113.44" r="12.69"/>
      <circle class="d" cx="536.44" cy="12.69" r="12.69"/>
      <circle class="d" cx="536.44" cy="45.84" r="12.69"/>
      <circle class="d" cx="536.44" cy="79" r="12.69"/>
      <circle class="d" cx="536.44" cy="112.16" r="12.69"/>
      <g>
        <circle class="e" cx="143.69" cy="146.6" r="12.69"/>
        <circle class="e" cx="176.19" cy="146.6" r="12.69"/>
        <circle class="e" cx="208.69" cy="146.6" r="12.69"/>
        <circle class="e" cx="241.19" cy="146.6" r="12.69"/>
        <circle class="e" cx="273.69" cy="146.6" r="12.69"/>
        <circle class="e" cx="306.19" cy="146.6" r="12.69"/>
        <circle class="e" cx="338.69" cy="146.6" r="12.69"/>
        <circle class="e" cx="371.69" cy="146.6" r="12.69"/>
        <circle class="e" cx="405.19" cy="146.6" r="12.69"/>
        <circle class="e" cx="437.69" cy="146.6" r="12.69"/>
        <circle class="e" cx="470.19" cy="146.6" r="12.69"/>
        <circle class="e" cx="502.69" cy="146.6" r="12.69"/>
        <circle class="e" cx="536.44" cy="145.31" r="12.69"/>
      </g>
      <circle class="d" cx="569.94" cy="12.69" r="12.69"/>
      <circle class="d" cx="569.94" cy="45.84" r="12.69"/>
      <circle class="d" cx="569.94" cy="79" r="12.69"/>
      <circle class="d" cx="569.94" cy="112.16" r="12.69"/>
      <circle class="d" cx="569.94" cy="145.31" r="12.69"/>
      <circle class="d" cx="602.44" cy="12.69" r="12.69"/>
      <circle class="d" cx="602.44" cy="45.84" r="12.69"/>
      <circle class="d" cx="602.44" cy="79" r="12.69"/>
      <circle class="d" cx="602.44" cy="112.16" r="12.69"/>
      <circle class="d" cx="602.44" cy="145.31" r="12.69"/>
      <circle class="d" cx="634.94" cy="12.69" r="12.69"/>
      <circle class="d" cx="634.94" cy="45.84" r="12.69"/>
      <circle class="d" cx="634.94" cy="79" r="12.69"/>
      <circle class="d" cx="634.94" cy="112.16" r="12.69"/>
      <circle class="d" cx="634.94" cy="145.31" r="12.69"/>
      <circle class="d" cx="667.44" cy="12.69" r="12.69"/>
      <circle class="d" cx="667.44" cy="45.84" r="12.69"/>
      <circle class="d" cx="667.44" cy="79" r="12.69"/>
      <circle class="d" cx="667.44" cy="112.16" r="12.69"/>
      <circle class="d" cx="667.44" cy="145.31" r="12.69"/>
    </g>
  </g>
</svg>